<svg xmlns="http://www.w3.org/2000/svg" viewBox="0 0 312.24 38.8"><defs><style>.cls-1{fill:#fff;}.cls-2{fill:#383838;}</style></defs><g id="Layer_2" data-name="Layer 2"><g id="Layer_1-2" data-name="Layer 1"><path class="cls-1" d="M12,36H8.81c-.61,0-.92-.29-.92-.87V7.94a.45.45,0,0,0-.51-.51H.92C.31,7.43,0,7.14,0,6.56V4a.8.8,0,0,1,.92-.88h19c.62,0,.93.3.93.88V6.56q0,.87-.93.87H13.48q-.57,0-.57.51V35.15A.77.77,0,0,1,12,36Z"/><path class="cls-1" d="M26.9,36H23.67a.77.77,0,0,1-.87-.87V10.76a.77.77,0,0,1,.87-.87H26.9a.77.77,0,0,1,.87.87v2H28a4,4,0,0,1,2-2.05,6.9,6.9,0,0,1,3.25-.77h1.9a.77.77,0,0,1,.87.87v2.67c0,.64-.29.92-.87.82H32q-4.26,0-4.26,4.66V35.15A.77.77,0,0,1,26.9,36Z"/><path class="cls-1" d="M59,36H48a7.89,7.89,0,0,1-5.87-2.1A8,8,0,0,1,40,28.08V17.83A7.92,7.92,0,0,1,42.08,12,7.92,7.92,0,0,1,48,9.89h4.2A8,8,0,0,1,58.05,12a7.85,7.85,0,0,1,2.1,5.86v6.51a.81.81,0,0,1-.93.92H45.49c-.37,0-.56.17-.56.52V28q0,3.73,3.74,3.74H59a.81.81,0,0,1,.92.92V35.2C59.94,35.75,59.64,36,59,36ZM45.49,21.78h9.17a.45.45,0,0,0,.52-.51V18a4,4,0,0,0-.87-2.85,3.82,3.82,0,0,0-2.82-.89H48.67a3.79,3.79,0,0,0-2.82.89A4,4,0,0,0,45,18v3.28A.45.45,0,0,0,45.49,21.78Z"/><path class="cls-1" d="M68.94,36H65.71a.77.77,0,0,1-.87-.87V10.76a.77.77,0,0,1,.87-.87h3.23a.77.77,0,0,1,.87.87v1.85H70q1.23-2.71,5.18-2.72h2.25a7.63,7.63,0,0,1,5.74,2,8.11,8.11,0,0,1,2,5.89V35.15c0,.58-.31.87-.92.87H81a.77.77,0,0,1-.87-.87V18q0-3.79-3.74-3.79H74q-4.2,0-4.2,4.35V35.15A.77.77,0,0,1,68.94,36Z"/><path class="cls-1" d="M100.12,36H97.51A7.48,7.48,0,0,1,91.84,34a8.22,8.22,0,0,1-2-5.87V17.83a8.19,8.19,0,0,1,2-5.89,7.51,7.51,0,0,1,5.67-2h2.61q3.94,0,5.12,2.72h.21V.87a.77.77,0,0,1,.87-.87h3.28a.77.77,0,0,1,.87.87V35.15a.77.77,0,0,1-.87.87h-3.28a.77.77,0,0,1-.87-.87V33.31h-.21Q104.07,36,100.12,36Zm5.33-8.71V18.6q0-4.35-4.2-4.35H98.53q-3.69,0-3.69,3.79v9.84c0,2.52,1.23,3.79,3.69,3.79h2.72Q105.45,31.67,105.45,27.31Z"/><path class="cls-1" d="M125.12,36H116.2a.49.49,0,0,1-.56-.56V34.28c0-.34.19-.51.56-.51h8.66q4.62,0,4.62-3.59V29a4.16,4.16,0,0,0-2.87-4.35l-6.41-2.46a8.9,8.9,0,0,1-3.72-2.41,6,6,0,0,1-1.1-3.84q0-6,6.61-6h8.3a.5.5,0,0,1,.57.56v1.18q0,.51-.57.51h-8a4.63,4.63,0,0,0-3.15.93,2.78,2.78,0,0,0-1,2.15V16.4a3.09,3.09,0,0,0,.79,2.25A6.12,6.12,0,0,0,121.28,20l6.4,2.56a5.75,5.75,0,0,1,3.56,2.59,10.44,10.44,0,0,1,.9,4.79,5.69,5.69,0,0,1-1.72,4.56Q128.71,36,125.12,36Z"/><path class="cls-1" d="M147.63,36h-4.41A7,7,0,0,1,138,34.08a7.27,7.27,0,0,1-1.92-5.33V17.17A7.26,7.26,0,0,1,138,11.84a7,7,0,0,1,5.25-1.95h4.41a7.13,7.13,0,0,1,5.28,1.95,7.23,7.23,0,0,1,1.94,5.33V28.75a7.24,7.24,0,0,1-1.94,5.33A7.13,7.13,0,0,1,147.63,36Zm-4.2-2.3h4A4.77,4.77,0,0,0,151,32.41a5.13,5.13,0,0,0,1.26-3.71V17.22A5.14,5.14,0,0,0,151,13.5a4.76,4.76,0,0,0-3.61-1.3h-4a4.69,4.69,0,0,0-3.59,1.3,5.22,5.22,0,0,0-1.23,3.72V28.7a5.21,5.21,0,0,0,1.23,3.71A4.69,4.69,0,0,0,143.43,33.72Z"/><path class="cls-1" d="M165.57,9.89h4.67c.41,0,.61.19.61.56v1.18c0,.38-.2.57-.61.57h-4.67a.41.41,0,0,0-.46.46V35.41c0,.41-.19.61-.56.61h-1.49c-.37,0-.56-.2-.56-.61V12.66a.4.4,0,0,0-.46-.46h-3.28a.5.5,0,0,1-.56-.57V10.45a.49.49,0,0,1,.56-.56H162a.4.4,0,0,0,.46-.46V7.17Q162.5,0,169,0h1.23c.41,0,.61.19.61.56V1.74c0,.38-.2.57-.61.57h-1A3.78,3.78,0,0,0,166,3.54a6.17,6.17,0,0,0-.93,3.74V9.43A.41.41,0,0,0,165.57,9.89Z"/><path class="cls-1" d="M173.37,12.2h-3.13c-.38,0-.56-.17-.56-.52V10.45a.49.49,0,0,1,.56-.56h3.13a.41.41,0,0,0,.46-.46V5.28c0-.41.18-.62.56-.62h1.49c.37,0,.56.21.56.62V9.43a.4.4,0,0,0,.46.46H183a.49.49,0,0,1,.56.56v1.23c0,.35-.18.52-.56.52h-6.1a.4.4,0,0,0-.46.46V28.8a4.82,4.82,0,0,0,1.33,3.64,5.2,5.2,0,0,0,3.74,1.28h2a.5.5,0,0,1,.57.56v1.18a.5.5,0,0,1-.57.56h-2.2a7.67,7.67,0,0,1-5.43-1.89,6.77,6.77,0,0,1-2-5.23V12.66A.41.41,0,0,0,173.37,12.2Z"/><path class="cls-1" d="M235.88,20.76a27.29,27.29,0,0,1,6.76-18H209.52A13.65,13.65,0,0,0,195.9,16.42v8.71A13.65,13.65,0,0,0,209.52,38.8h33.16A27.21,27.21,0,0,1,235.88,20.76Zm-15,8.66h-2.75l-3.57-10.83L211,29.42h-2.74l-4.81-15.78,3.44,0L210,23.78l3.12-10.11h3l3.11,10.11,3.09-10.11h3.44Zm10,0h-3.51V13.67h3.51Zm15.44-8.66a20.79,20.79,0,0,1,10.41-18h-5.14a23.31,23.31,0,0,0,0,36.05h5.16A20.8,20.8,0,0,1,246.37,20.76Zm52.25-18H261.77a18.8,18.8,0,0,0,.14,36.05h36.71a13.65,13.65,0,0,0,13.62-13.67V16.42A13.65,13.65,0,0,0,298.62,2.75Zm-33.75,8.09h-1.82a2,2,0,0,0-1.5.51,1.78,1.78,0,0,0-.49,1.32v1h3.81v2.76h-3.81v13h-3.51v-13H255V13.67h2.54v-.25c0-.4,0-.84,0-1.32a6.4,6.4,0,0,1,.25-1.43,3.21,3.21,0,0,1,.74-1.3,3.64,3.64,0,0,1,1.45-1A5.11,5.11,0,0,1,261.57,8c.51,0,.95,0,1.33,0h2Zm6.58,18.58h-3.52V13.67h3.52Zm0-18.14h-3.52V8.06h3.52Zm17.39,18.14h-3.55V21.84a14.4,14.4,0,0,0-.11-1.65,5.62,5.62,0,0,0-.47-1.74,3.41,3.41,0,0,0-1.11-1.38,3.29,3.29,0,0,0-2-.54,4.08,4.08,0,0,0-1.33.22,3,3,0,0,0-1.18.75,3.74,3.74,0,0,0-.86,1.46,7.5,7.5,0,0,0-.32,2.37v8.09h-3.56V13.67h3.14v1.76a6.47,6.47,0,0,1,1.41-1.24,6.78,6.78,0,0,1,3.74-1,6.26,6.26,0,0,1,2.88.58,5.16,5.16,0,0,1,1.81,1.49,6.32,6.32,0,0,1,1,1.93,9.21,9.21,0,0,1,.42,1.93c.06.61.09,1.1.09,1.48Zm16.66-6.9H294.11a5.12,5.12,0,0,0,1,2.73,3.67,3.67,0,0,0,3.06,1.31A4.24,4.24,0,0,0,300.4,26a3.77,3.77,0,0,0,1.45-1.67l3.47,1.05a7,7,0,0,1-2.79,3.31,7.68,7.68,0,0,1-4.16,1.18,8.28,8.28,0,0,1-4.2-1A7.3,7.3,0,0,1,291.34,26a8.65,8.65,0,0,1-1-4.23,9.58,9.58,0,0,1,1-4.48,7.24,7.24,0,0,1,2.76-3,7.84,7.84,0,0,1,4.08-1,7.37,7.37,0,0,1,4.17,1.15,6.75,6.75,0,0,1,2.54,3.23A11,11,0,0,1,305.5,22.52Zm-7.19-6.21a3.84,3.84,0,0,0-3.21,1.34,5,5,0,0,0-.9,2.22h7.72a5,5,0,0,0-.81-2.38A3.3,3.3,0,0,0,298.31,16.31Zm-57.18,4.45a25.3,25.3,0,0,1,7.52-18h-3.29a25.41,25.41,0,0,0,0,36.05h3.3A25.24,25.24,0,0,1,241.13,20.76Z"/><path class="cls-2" d="M227.42,8.06v3.22h3.51V8.06Z"/></g></g></svg>